<?xml version="1.0" encoding="UTF-8" standalone="no"?>
<svg
   xmlns:dc="http://purl.org/dc/elements/1.1/"
   xmlns:cc="http://creativecommons.org/ns#"
   xmlns:rdf="http://www.w3.org/1999/02/22-rdf-syntax-ns#"
   xmlns:svg="http://www.w3.org/2000/svg"
   xmlns="http://www.w3.org/2000/svg"
   xmlns:sodipodi="http://sodipodi.sourceforge.net/DTD/sodipodi-0.dtd"
   xmlns:inkscape="http://www.inkscape.org/namespaces/inkscape"
   version="1.1"
   id="svg2"
   xml:space="preserve"
   width="759.91998"
   height="87.426666"
   viewBox="0 0 759.91998 87.426666"
   sodipodi:docname="VHLogo-Final V.eps"><metadata
     id="metadata8"><rdf:RDF><cc:Work
         rdf:about=""><dc:format>image/svg+xml</dc:format><dc:type
           rdf:resource="http://purl.org/dc/dcmitype/StillImage" /></cc:Work></rdf:RDF></metadata><defs
     id="defs6" /><sodipodi:namedview
     pagecolor="#ffffff"
     bordercolor="#666666"
     borderopacity="1"
     objecttolerance="10"
     gridtolerance="10"
     guidetolerance="10"
     inkscape:pageopacity="0"
     inkscape:pageshadow="2"
     inkscape:window-width="640"
     inkscape:window-height="480"
     id="namedview4" /><g
     id="g10"
     inkscape:groupmode="layer"
     inkscape:label="ink_ext_XXXXXX"
     transform="matrix(1.3333333,0,0,-1.3333333,0,87.426667)"><g
       id="g12"
       transform="scale(0.1)"><path
         d="m 2848.09,260.801 202.18,152.238 -202.18,154.512 -196.6,-154.512 196.6,-152.238"
         style="fill:#79d1c7;fill-opacity:1;fill-rule:nonzero;stroke:none"
         id="path14" /><path
         d="m 26.5508,350.723 74.2302,-187.871 74.551,187.871 h 5.117 L 90.2227,122.941 0,350.723 h 26.5508"
         style="fill:#231f20;fill-opacity:1;fill-rule:nonzero;stroke:none"
         id="path16" /><path
         d="m 296.023,201.289 h 90.395 L 341.223,316.25 Z m 92.207,-4.617 H 294.211 L 266.824,126.73 h -5.105 l 90.222,229.774 90.227,-229.774 h -26.555 l -27.383,69.942"
         style="fill:#231f20;fill-opacity:1;fill-rule:nonzero;stroke:none"
         id="path18" /><path
         d="m 578.215,350.723 h 25.066 V 131.348 h 86.438 V 126.73 H 578.215 v 223.993"
         style="fill:#231f20;fill-opacity:1;fill-rule:nonzero;stroke:none"
         id="path20" /><path
         d="M 852.449,346.113 V 243.352 h 82.153 V 238.73 H 852.449 V 131.348 h 98.149 V 126.73 H 827.383 v 223.993 h 123.215 v -4.61 h -98.149"
         style="fill:#231f20;fill-opacity:1;fill-rule:nonzero;stroke:none"
         id="path22" /><path
         d="M 1262.29,350.723 V 122.941 L 1096.85,310.977 V 126.73 h -4.62 v 227.793 l 165.44,-187.871 v 184.071 h 4.62"
         style="fill:#231f20;fill-opacity:1;fill-rule:nonzero;stroke:none"
         id="path24" /><path
         d="M 1563.12,346.113 H 1494.5 V 126.73 h -24.91 v 219.383 h -68.61 v 4.61 h 162.14 v -4.61"
         style="fill:#231f20;fill-opacity:1;fill-rule:nonzero;stroke:none"
         id="path26" /><path
         d="m 1703.78,350.723 h 24.9 V 126.73 h -24.9 v 223.993"
         style="fill:#231f20;fill-opacity:1;fill-rule:nonzero;stroke:none"
         id="path28" /><path
         d="M 2046.6,350.723 V 122.941 L 1881.16,310.977 V 126.73 h -4.62 v 227.793 l 165.44,-187.871 v 184.071 h 4.62"
         style="fill:#231f20;fill-opacity:1;fill-rule:nonzero;stroke:none"
         id="path30" /><path
         d="M 2217.62,346.113 V 243.352 h 82.15 v -4.622 h -82.15 V 131.348 h 98.14 v -4.618 h -123.21 v 223.993 h 123.21 v -4.61 h -98.14"
         style="fill:#231f20;fill-opacity:1;fill-rule:nonzero;stroke:none"
         id="path32" /><path
         d="M 3050.27,576.73 V 413.039 L 2848.09,260.801 2651.49,413.039 V 576.73 l -100.9,78.973 V 76.9648 L 2651.49,0 v 281.789 l 196.6,-153.008 202.18,153.035 V 0.0117188 L 3151.19,76.9648 V 655.703 L 3050.27,576.73"
         style="fill:#231f20;fill-opacity:1;fill-rule:nonzero;stroke:none"
         id="path34" /><path
         d="m 3411.99,131.348 h 32 c 51.47,0 94.68,41.894 94.68,107.382 0,65.481 -43.21,107.383 -94.68,107.383 h -32 z m -25.07,-4.618 v 223.993 h 57.74 c 66.31,0 120.74,-46.512 120.74,-111.993 0,-65.488 -54.43,-112 -120.74,-112 h -57.74"
         style="fill:#231f20;fill-opacity:1;fill-rule:nonzero;stroke:none"
         id="path36" /><path
         d="M 3689.55,346.113 V 243.352 h 82.15 v -4.622 h -82.15 V 131.348 h 98.15 v -4.618 h -123.22 v 223.993 h 123.22 v -4.61 h -98.15"
         style="fill:#231f20;fill-opacity:1;fill-rule:nonzero;stroke:none"
         id="path38" /><path
         d="m 3994.13,334.563 c 0,0 -18.31,14.675 -43.05,14.675 -24.08,0 -43.87,-13.847 -43.87,-35.789 0,-20.949 15.01,-31.008 45.52,-52.121 34.81,-23.914 64,-43.711 64,-78.515 0,-43.223 -41.23,-58.719 -73.57,-58.719 -36.78,0 -60.7,20.117 -60.7,20.117 v 11.055 c 0,0 24.75,-26.555 61.69,-26.555 30.02,0 50.31,17.48 50.31,43.547 0,21.765 -13.36,36.941 -46.68,60.703 -35.13,24.902 -59.87,42.383 -59.87,70.926 0,33.808 32.99,49.972 63.83,49.972 23.43,0 42.39,-9.23 42.39,-9.23 v -10.066"
         style="fill:#231f20;fill-opacity:1;fill-rule:nonzero;stroke:none"
         id="path40" /><path
         d="m 4141.86,234.113 h 23.09 c 41.9,0 59.22,18.965 59.22,55.918 0,36.942 -17.32,56.082 -59.22,56.082 h -23.09 z m 0,-4.621 V 126.73 h -25.07 v 223.993 h 56.41 c 41.57,0 77.85,-18.965 77.85,-60.692 0,-41.738 -36.28,-60.539 -77.85,-60.539 h -31.34"
         style="fill:#231f20;fill-opacity:1;fill-rule:nonzero;stroke:none"
         id="path42" /><path
         d="m 4548.39,238.73 c 0,65.481 -36.29,111.672 -90.72,111.672 -54.44,0 -90.72,-46.191 -90.72,-111.672 0,-65.82 36.28,-111.667 90.72,-111.667 54.43,0 90.72,45.847 90.72,111.667 z m -90.72,-116.289 c -65.65,0 -118.43,48.985 -118.43,116.289 0,65.645 52.78,116.29 118.43,116.29 65.65,0 118.27,-50.645 118.27,-116.29 0,-67.304 -52.62,-116.289 -118.27,-116.289"
         style="fill:#231f20;fill-opacity:1;fill-rule:nonzero;stroke:none"
         id="path44" /><path
         d="m 4678.67,350.723 h 24.9 V 126.73 h -24.9 v 223.993"
         style="fill:#231f20;fill-opacity:1;fill-rule:nonzero;stroke:none"
         id="path46" /><path
         d="M 4983.54,350.723 V 122.941 L 4818.11,310.977 V 126.73 h -4.62 v 227.793 l 165.44,-187.871 v 184.071 h 4.61"
         style="fill:#231f20;fill-opacity:1;fill-rule:nonzero;stroke:none"
         id="path48" /><path
         d="M 5246.42,346.113 H 5177.8 V 126.73 h -24.91 v 219.383 h -68.61 v 4.61 h 162.14 v -4.61"
         style="fill:#231f20;fill-opacity:1;fill-rule:nonzero;stroke:none"
         id="path50" /><path
         d="M 5372.22,346.113 V 243.352 h 82.15 v -4.622 h -82.15 V 131.348 h 98.14 v -4.618 h -123.21 v 223.993 h 123.21 v -4.61 h -98.14"
         style="fill:#231f20;fill-opacity:1;fill-rule:nonzero;stroke:none"
         id="path52" /><path
         d="m 5676.8,334.563 c 0,0 -18.31,14.675 -43.05,14.675 -24.08,0 -43.88,-13.847 -43.88,-35.789 0,-20.949 15.01,-31.008 45.53,-52.121 34.81,-23.914 63.99,-43.711 63.99,-78.515 0,-43.223 -41.23,-58.719 -73.56,-58.719 -36.79,0 -60.7,20.117 -60.7,20.117 v 11.055 c 0,0 24.74,-26.555 61.69,-26.555 30.02,0 50.31,17.48 50.31,43.547 0,21.765 -13.36,36.941 -46.68,60.703 -35.14,24.902 -59.87,42.383 -59.87,70.926 0,33.808 32.98,49.972 63.82,49.972 23.43,0 42.4,-9.23 42.4,-9.23 v -10.066"
         style="fill:#231f20;fill-opacity:1;fill-rule:nonzero;stroke:none"
         id="path54" /></g></g></svg>
